# xmcd
#
# Track frame offsets:
#	150
#	13151
#	26404
#	41736
#	55405
#	69628
#	78990
#	91859
#	105179
#	123441
#
# Disc length: 1847 seconds
#
# Revision: 2
# Processed by: cddbd v1.5.2PL0 Copyright (c) Steve Scherf et al.
# Submitted via: audiograbber 1.83.01
#
DISCID=7707350a
DTITLE=Various Artist - 70s Country [CDTwo)
DYEAR=2002
DGENRE=Country
TTITLE0=Fender, Freddy - Wasted Days and Wasted Nights
TTITLE1=Shepperd, T. G. - Devil In The Bottle
TTITLE2=Thomas, B. J.  - Another Somebody Done Somebody Wrong Song
TTITLE3=Fargo, Donna - You Can't Be A Beacon
TTITLE4=Bandy, Moe - I Cheated Me Right Out Of You
TTITLE5=Paycheck, Johnny - Mr. Lovemaker
TTITLE6=Shepperd, T. G. - Trying To Beat The Morning Home
TTITLE7=Dudley, Dave - Pool Shark, The
TTITLE8=Fender, Freddy - Secret Love
TTITLE9=Bandy, Moe - Hank Williams, You Wrote My Life
EXTD=YEAR: 2002
EXTT0=
EXTT1=
EXTT2=
EXTT3=
EXTT4=
EXTT5=
EXTT6=
EXTT7=
EXTT8=
EXTT9=
PLAYORDER=
